<mxfile host="app.diagrams.net" modified="2024-07-18T18:43:05.181Z" agent="Mozilla/5.0 (Macintosh; Intel Mac OS X 10_15_7) AppleWebKit/605.1.15 (KHTML, like Gecko) Version/17.5 Safari/605.1.15" version="24.7.1" etag="LYwtPrL0FZneTmaAnw3u" type="github">
  <diagram name="Page-1" id="TkJawKgITCSMuAw7oRhp">
    <mxGraphModel>
      <root>
        <mxCell id="0" />
        <mxCell id="1" parent="0" />
      </root>
    </mxGraphModel>
  </diagram>
</mxfile>
